<?xml version="1.0" standalone="no"?>
<!DOCTYPE svg PUBLIC "-//W3C//DTD SVG 20010904//EN"
 "http://www.w3.org/TR/2001/REC-SVG-20010904/DTD/svg10.dtd">
<svg version="1.0" xmlns="http://www.w3.org/2000/svg"
 width="9776.000000pt" height="5555.000000pt" viewBox="0 0 9776.000000 5555.000000"
 preserveAspectRatio="xMidYMid meet">

<g transform="translate(0.000000,5555.000000) scale(0.100000,-0.100000)"
fill="#000000" stroke="none">
<path d="M47025 51244 c-1510 -820 -1680 -912 -2305 -1251 -510 -277 -1208
-656 -1365 -741 -123 -67 -2686 -1457 -3215 -1744 -162 -89 -425 -231 -585
-318 -159 -87 -553 -300 -875 -475 -322 -174 -637 -345 -700 -380 -63 -34
-302 -164 -530 -288 -228 -123 -1126 -610 -1995 -1082 -2031 -1102 -2026
-1099 -2580 -1400 -93 -51 -359 -195 -590 -320 -231 -125 -654 -355 -940 -510
-441 -240 -1950 -1059 -2740 -1487 -126 -69 -417 -226 -645 -350 -228 -124
-759 -412 -1180 -640 -994 -540 -3066 -1664 -3290 -1786 -186 -101 -404 -219
-690 -374 -96 -53 -364 -198 -595 -323 -231 -125 -546 -296 -700 -380 -154
-84 -523 -284 -820 -445 -297 -161 -774 -420 -1060 -575 -286 -155 -995 -540
-1575 -855 -1120 -608 -1357 -736 -1810 -982 -157 -86 -368 -200 -470 -255
-102 -55 -714 -387 -1360 -738 -2205 -1197 -2925 -1587 -3460 -1878 -294 -159
-614 -332 -710 -385 -96 -52 -303 -164 -460 -250 -157 -85 -337 -182 -400
-217 -63 -34 -223 -121 -355 -193 -318 -172 -2526 -1370 -2825 -1532 -129 -70
-354 -193 -500 -272 -146 -79 -538 -292 -872 -473 -335 -182 -608 -333 -608
-336 0 -3 235 -137 523 -297 773 -430 1686 -939 2077 -1157 482 -269 1543
-860 2325 -1295 363 -202 737 -410 830 -462 94 -53 485 -271 870 -485 385
-215 957 -533 1270 -708 314 -175 629 -350 700 -390 199 -111 2649 -1475 3770
-2100 363 -202 856 -477 1095 -610 239 -133 692 -385 1005 -560 314 -175 710
-395 880 -490 171 -95 407 -226 525 -292 289 -162 1315 -733 2015 -1123 314
-175 764 -425 1000 -557 237 -132 554 -309 705 -393 151 -84 370 -206 485
-270 116 -65 451 -251 745 -415 294 -164 630 -351 745 -415 116 -65 408 -227
650 -362 242 -135 580 -323 750 -418 171 -95 603 -336 960 -535 358 -199 947
-528 1310 -730 363 -202 896 -499 1185 -660 289 -161 782 -435 1095 -610 314
-175 649 -361 745 -415 295 -164 1472 -820 1705 -950 378 -211 1090 -607 1320
-735 121 -67 317 -176 435 -242 118 -66 532 -297 920 -513 388 -216 903 -503
1145 -638 242 -135 555 -309 695 -387 140 -78 570 -318 955 -532 385 -215 997
-556 1360 -758 363 -202 896 -499 1185 -660 289 -161 782 -435 1095 -610 314
-175 728 -405 920 -513 193 -107 472 -262 620 -345 149 -82 464 -258 700 -390
237 -132 666 -371 955 -532 289 -161 840 -468 1225 -682 385 -215 714 -397
730 -405 30 -15 32 -14 600 299 314 173 784 432 1045 575 261 144 718 395
1015 558 297 163 772 424 1055 580 283 155 583 320 665 365 138 76 858 472
2005 1102 1093 601 1963 1079 3230 1775 745 410 1657 911 2025 1113 768 422
2064 1134 3075 1690 382 210 997 548 1365 750 369 202 1100 604 1625 893 525
289 1205 662 1510 830 305 167 668 366 805 442 411 226 1516 833 2220 1220
363 199 818 449 1010 555 1200 659 1711 940 2025 1113 195 107 443 243 550
302 107 59 445 245 750 412 1038 571 2074 1140 2580 1418 2199 1208 2767 1520
2985 1640 138 76 430 237 650 358 1224 672 2444 1343 3425 1882 327 180 849
467 1160 637 311 171 1132 622 1825 1003 693 381 1355 744 1470 808 116 63
293 161 395 217 102 56 394 217 650 357 2620 1439 3170 1742 3162 1749 -4 3
-115 64 -247 134 -132 70 -627 335 -1100 588 -855 457 -1315 703 -2145 1147
-239 128 -658 352 -930 497 -1197 641 -1408 753 -2155 1153 -434 233 -1114
596 -1510 808 -396 211 -844 451 -995 532 -151 81 -702 376 -1225 655 -522
279 -1330 711 -1795 960 -465 249 -1205 645 -1645 880 -440 235 -928 496
-1085 580 -157 84 -476 255 -710 380 -234 125 -524 280 -645 345 -121 65 -575
308 -1010 540 -434 232 -821 439 -860 460 -80 43 -1397 747 -2155 1152 -278
149 -570 305 -650 348 -80 43 -239 128 -355 190 -115 62 -241 130 -280 150
-38 21 -266 142 -505 270 -239 128 -532 284 -650 348 -118 63 -309 165 -425
227 -115 62 -439 235 -720 385 -280 150 -667 357 -860 460 -1537 822 -1794
959 -2150 1150 -110 59 -398 213 -640 343 -242 129 -1050 561 -1795 959 -745
399 -1425 762 -1510 808 -85 45 -508 272 -940 502 -432 231 -949 508 -1150
616 -201 107 -552 295 -780 417 -228 122 -485 259 -570 305 -85 45 -409 219
-720 385 -311 166 -729 390 -930 497 -201 108 -430 230 -510 273 -80 43 -433
232 -785 420 -712 381 -1399 748 -1725 923 -118 63 -440 235 -715 382 -275
147 -853 456 -1285 687 -432 231 -1275 682 -1875 1003 -599 321 -1279 684
-1510 808 -231 123 -465 248 -521 278 -55 30 -105 54 -110 54 -5 0 -643 -345
-1419 -766z m1765 207 c184 -98 461 -246 615 -329 442 -236 816 -436 1290
-689 242 -130 661 -354 930 -498 270 -144 686 -367 925 -495 239 -128 599
-320 800 -428 201 -107 586 -313 855 -457 270 -144 657 -351 860 -460 204
-109 624 -334 935 -500 311 -166 761 -407 1000 -535 239 -128 626 -335 860
-460 1670 -893 3011 -1610 3085 -1650 39 -21 237 -127 440 -235 204 -109 525
-281 715 -383 190 -101 577 -308 860 -459 283 -152 605 -324 715 -383 296
-159 572 -306 1365 -730 393 -210 780 -417 860 -460 158 -85 1494 -800 2440
-1305 327 -175 719 -384 870 -465 151 -81 568 -304 925 -495 358 -191 745
-398 860 -460 116 -62 469 -251 785 -420 316 -169 703 -376 860 -460 157 -84
479 -256 715 -382 866 -463 1458 -780 1800 -963 193 -103 710 -380 1150 -615
440 -235 1117 -598 1505 -805 388 -208 872 -466 1075 -575 331 -177 1265 -676
1860 -995 121 -65 382 -204 580 -310 508 -271 769 -411 1085 -580 151 -81 534
-286 850 -455 605 -323 972 -520 1795 -960 275 -147 664 -355 865 -463 394
-210 796 -425 1145 -612 121 -65 603 -322 1070 -572 468 -250 1111 -595 1430
-765 706 -378 775 -415 1235 -661 201 -107 554 -296 785 -419 231 -124 526
-282 655 -351 129 -69 270 -144 313 -167 l79 -43 -54 -30 c-29 -16 -147 -81
-263 -145 -115 -63 -367 -201 -560 -307 -192 -106 -420 -231 -505 -278 -85
-46 -243 -133 -350 -192 -107 -59 -265 -146 -350 -192 -85 -47 -245 -135 -355
-195 -110 -61 -290 -160 -400 -220 -379 -208 -1631 -896 -1880 -1033 -278
-153 -1310 -721 -1705 -937 -140 -77 -667 -367 -1170 -643 -818 -450 -1089
-598 -1410 -775 -52 -28 -687 -377 -1410 -775 -723 -397 -1704 -936 -2180
-1198 -476 -261 -953 -523 -1060 -582 -215 -119 -1320 -726 -2665 -1465 -478
-263 -937 -515 -1020 -560 -82 -46 -672 -370 -1310 -720 -2662 -1463 -2688
-1477 -3880 -2132 -330 -182 -850 -468 -1155 -635 -2036 -1119 -2830 -1555
-3945 -2168 -693 -381 -1372 -754 -1510 -830 -137 -76 -455 -250 -705 -387
-250 -138 -912 -501 -1470 -808 -558 -307 -1310 -720 -1670 -918 -360 -198
-788 -433 -950 -522 -162 -89 -437 -240 -610 -335 -173 -95 -403 -221 -510
-280 -107 -59 -535 -294 -950 -523 -1504 -826 -2276 -1250 -3235 -1777 -192
-106 -420 -231 -505 -278 -85 -46 -447 -246 -805 -442 -560 -308 -1428 -785
-2180 -1198 -115 -63 -293 -161 -395 -217 -676 -373 -1029 -565 -1039 -565 -6
0 -246 131 -533 291 -288 160 -779 434 -1093 609 -313 174 -669 372 -790 440
-121 68 -456 254 -745 415 -289 161 -822 458 -1185 660 -363 202 -718 400
-790 440 -71 40 -326 181 -565 315 -239 133 -534 298 -655 365 -418 232 -1711
953 -1925 1072 -227 127 -1593 888 -1890 1053 -96 54 -350 195 -565 315 -214
120 -667 372 -1005 560 -338 188 -910 507 -1270 707 -1647 918 -1893 1055
-2020 1125 -74 42 -270 151 -435 243 -165 92 -615 343 -1000 557 -1033 576
-2209 1231 -2805 1563 -289 161 -761 424 -1050 585 -289 160 -644 358 -790
440 -146 81 -481 268 -745 415 -264 147 -599 334 -745 415 -146 81 -501 279
-790 440 -504 280 -1158 645 -2585 1440 -363 202 -993 553 -1400 780 -407 227
-839 467 -960 535 -121 67 -436 243 -700 390 -1375 766 -1910 1064 -2105 1173
-118 66 -294 163 -390 217 -96 53 -492 274 -880 490 -388 216 -901 502 -1140
635 -239 133 -554 309 -700 390 -146 81 -578 322 -960 535 -382 213 -1012 564
-1400 780 -388 216 -1020 568 -1405 783 -686 382 -937 522 -2365 1317 -388
216 -1020 568 -1405 783 -385 214 -797 443 -915 509 -118 66 -357 199 -530
295 -173 97 -319 179 -323 183 -5 4 22 24 60 45 73 40 582 317 1708 928 900
488 1644 892 2160 1172 226 123 727 395 1115 605 388 210 786 426 885 480 99
54 333 181 520 282 187 102 528 287 758 411 229 125 603 328 830 451 226 123
543 295 702 381 160 87 553 300 875 475 322 174 824 447 1115 605 292 158 613
333 715 388 424 230 524 284 925 502 231 125 656 356 945 512 289 157 577 313
640 348 63 35 351 191 640 348 844 457 2740 1486 3055 1657 160 87 583 316
940 510 906 492 1757 954 2100 1140 347 188 1905 1034 2475 1343 223 120 482
261 575 312 94 51 517 280 940 510 424 230 871 473 995 540 124 67 414 225
645 350 231 125 656 356 945 513 289 156 737 399 995 540 259 140 547 296 640
347 94 51 517 280 940 510 424 230 847 459 940 510 94 51 406 221 695 377 289
157 840 456 1225 665 385 209 889 483 1120 608 231 125 551 299 710 385 160
87 607 330 995 540 902 489 1691 918 1990 1080 129 70 710 385 1290 700 1591
863 1701 923 2580 1400 448 243 901 489 1005 545 105 57 402 218 660 359 259
140 474 256 480 256 5 0 160 -81 345 -179z"/>
<path d="M47639 50066 c-442 -238 -1204 -648 -1694 -911 -489 -263 -966 -520
-1060 -570 -93 -51 -503 -271 -910 -490 -407 -219 -855 -459 -995 -535 -140
-76 -880 -474 -1645 -885 -1615 -869 -3676 -1977 -4415 -2375 -283 -152 -994
-535 -1580 -850 -586 -315 -1180 -634 -1320 -710 -140 -76 -734 -395 -1320
-710 -586 -315 -1297 -698 -1580 -850 -702 -378 -2070 -1114 -2965 -1595
-1169 -628 -2277 -1224 -2565 -1380 -146 -79 -470 -253 -720 -388 -250 -134
-752 -404 -1115 -599 -363 -196 -1110 -597 -1660 -893 -550 -296 -1232 -663
-1515 -815 -283 -153 -1140 -614 -1905 -1025 -764 -411 -1505 -809 -1645 -885
-140 -76 -646 -348 -1125 -605 -478 -257 -1160 -624 -1515 -815 -355 -191
-1124 -605 -1710 -920 -586 -315 -1301 -700 -1590 -855 -1060 -571 -2234
-1202 -2955 -1590 -407 -219 -911 -490 -1120 -602 -209 -113 -381 -206 -383
-208 -4 -3 29 -22 818 -457 344 -190 751 -415 905 -500 395 -219 2385 -1319
2835 -1568 206 -114 566 -313 800 -442 892 -494 2150 -1189 2515 -1391 209
-115 551 -304 760 -420 1428 -790 2987 -1652 3295 -1822 754 -416 1298 -717
1610 -890 201 -111 604 -334 895 -495 292 -161 762 -421 1045 -578 283 -156
625 -345 760 -420 135 -74 369 -204 520 -287 449 -249 1161 -642 2070 -1145
1281 -708 1601 -885 1755 -970 152 -85 791 -438 1027 -569 168 -92 1412 -780
2458 -1358 388 -215 770 -426 850 -470 1181 -653 2596 -1435 2980 -1648 307
-170 819 -453 1465 -810 237 -131 639 -353 895 -495 256 -141 618 -341 805
-445 450 -248 506 -279 665 -367 74 -42 288 -160 475 -263 187 -103 484 -268
660 -365 176 -97 559 -309 850 -470 292 -161 634 -350 760 -420 815 -451 1924
-1064 3400 -1880 550 -304 1059 -585 1130 -625 72 -40 281 -156 465 -257 184
-102 784 -434 1333 -737 548 -303 1008 -556 1020 -562 26 -12 -470 -280 6267
3393 1427 778 3466 1890 4530 2470 1824 995 2820 1538 7360 4013 1031 562
2944 1605 4250 2317 5470 2983 6876 3749 8405 4583 3834 2090 5199 2835 8010
4367 1639 894 3118 1700 3286 1792 168 91 314 172 323 179 15 11 -35 40 -386
227 -357 189 -2141 1134 -3318 1758 -234 123 -879 465 -1435 760 -973 515
-1582 837 -1750 927 -44 23 -312 165 -595 315 -283 150 -850 450 -1260 668
-410 217 -819 434 -910 482 -1306 691 -1713 907 -1755 930 -27 15 -102 55
-165 88 -63 33 -452 239 -865 457 -412 219 -1243 659 -1845 977 -602 319
-1241 658 -1420 753 -179 95 -595 315 -925 490 -330 175 -1126 597 -1770 938
-643 341 -1438 761 -1765 935 -327 173 -1007 533 -1510 800 -503 266 -1068
566 -1255 665 -187 99 -866 459 -1510 800 -643 341 -1701 901 -2350 1245 -649
343 -1405 744 -1680 890 -991 525 -1355 717 -2270 1202 -906 480 -1508 799
-1670 885 -44 23 -498 264 -1010 535 -511 271 -1231 652 -1600 848 -368 195
-1048 555 -1510 799 -462 245 -912 484 -1000 530 -177 95 -260 138 -510 271
-93 49 -620 328 -1170 619 -550 292 -1308 693 -1685 893 -377 199 -865 458
-1085 575 -220 117 -414 219 -431 228 l-31 16 -804 -433z m1548 -967 c406
-215 851 -451 988 -524 376 -199 2608 -1381 2700 -1430 157 -83 575 -305 910
-482 187 -99 759 -402 1270 -673 512 -271 1000 -530 1085 -575 431 -228 2436
-1290 2860 -1515 267 -141 832 -441 1255 -665 424 -224 1144 -606 1600 -848
792 -419 2017 -1068 3285 -1740 608 -321 1187 -628 1325 -702 44 -24 649 -344
1345 -713 696 -368 1753 -928 2350 -1244 597 -316 1353 -717 1680 -890 327
-174 782 -414 1010 -535 435 -231 1546 -820 4210 -2231 877 -464 1703 -902
1835 -972 524 -278 795 -421 1935 -1025 652 -345 1673 -887 2270 -1203 597
-316 1312 -695 1590 -842 278 -147 692 -366 920 -487 630 -335 2595 -1376
2762 -1464 421 -222 648 -344 648 -349 -1 -3 -85 -51 -188 -106 -180 -98
-2835 -1545 -7267 -3962 -1155 -629 -2921 -1592 -3925 -2139 -1004 -548 -1922
-1048 -2040 -1113 -118 -65 -1088 -594 -2155 -1175 -1977 -1078 -3874 -2112
-8010 -4367 -1276 -696 -3143 -1714 -4150 -2263 -1006 -548 -1927 -1050 -2045
-1115 -118 -65 -915 -499 -1770 -965 -855 -466 -2797 -1525 -4315 -2353 -1518
-827 -3190 -1739 -3715 -2025 -524 -286 -959 -520 -965 -520 -5 0 -354 190
-775 423 -421 232 -956 529 -1190 658 -234 129 -528 292 -655 362 -126 70
-700 387 -1275 705 -575 318 -1189 657 -1365 755 -361 200 -750 415 -1520 840
-291 161 -694 384 -895 495 -201 111 -624 345 -940 520 -756 418 -2752 1521
-3640 2012 -388 215 -772 427 -855 473 -82 46 -361 200 -620 343 -258 143
-621 343 -805 445 -410 227 -840 465 -1400 774 -234 130 -510 283 -615 340
-174 96 -526 291 -2465 1363 -360 199 -743 411 -850 470 -107 59 -339 187
-515 285 -176 97 -518 286 -760 420 -242 133 -584 323 -760 420 -176 98 -491
272 -700 387 -209 116 -591 327 -850 470 -258 143 -708 392 -1000 553 -291
161 -674 373 -850 470 -176 98 -579 320 -895 495 -590 326 -1213 671 -1700
940 -151 84 -342 189 -425 235 -82 45 -512 283 -955 528 -443 245 -1100 608
-1460 807 -360 199 -932 515 -1270 702 -338 187 -1085 600 -1660 918 -575 318
-1235 683 -1467 811 -421 233 -888 491 -1695 938 -233 128 -720 398 -1083 598
-363 201 -937 518 -1275 705 -338 187 -653 362 -700 387 -47 26 -88 51 -93 55
-4 4 14 19 40 33 199 107 2056 1105 2633 1416 1011 544 1746 939 2895 1557
550 296 1115 599 1255 675 140 76 851 458 1580 850 729 392 1498 806 1710 920
212 114 894 481 1515 815 622 334 1333 717 1580 850 248 133 871 469 1385 745
781 420 1556 837 1900 1022 41 23 224 121 405 218 182 97 629 338 995 535
1543 830 2533 1363 2955 1590 248 133 900 484 1450 780 550 296 1115 599 1255
675 140 76 793 427 1450 780 657 354 1398 752 1645 885 248 133 900 484 1450
780 550 296 1115 599 1255 675 140 76 881 474 1645 885 765 411 1505 809 1645
885 340 183 1885 1015 2965 1595 479 257 1014 545 1190 640 176 95 916 493
1645 885 729 392 1366 734 1415 761 50 27 91 49 92 49 1 0 334 -176 740 -391z"/>
<path d="M48375 48084 c-27 -15 -288 -155 -580 -312 -291 -156 -744 -399
-1005 -540 -261 -140 -560 -301 -665 -357 -191 -103 -2220 -1194 -2478 -1332
-77 -41 -225 -120 -330 -177 -106 -57 -437 -235 -737 -396 -300 -161 -781
-420 -1070 -575 -289 -155 -892 -479 -1340 -720 -448 -241 -1175 -631 -1615
-868 -905 -486 -1729 -929 -2135 -1147 -468 -251 -1321 -710 -1407 -756 -95
-51 -113 -72 -113 -130 0 -54 36 -101 86 -110 44 -8 -109 -87 1464 759 311
167 896 481 1530 822 549 295 1489 800 1880 1010 223 120 554 298 735 395 182
98 722 388 1200 645 479 257 989 532 1135 610 146 78 749 402 1340 720 591
318 1165 626 1275 685 506 272 1978 1063 2418 1299 l487 263 128 -68 c70 -37
235 -124 367 -194 132 -70 355 -188 495 -262 140 -75 665 -353 1165 -618 501
-265 1095 -580 1320 -700 579 -307 1627 -863 2320 -1230 784 -415 1367 -724
1660 -880 132 -70 539 -286 905 -480 366 -194 850 -450 1075 -570 226 -120
637 -338 915 -485 278 -147 575 -304 660 -350 85 -45 421 -223 745 -395 325
-172 775 -410 1000 -530 762 -404 850 -450 868 -450 65 0 125 71 113 134 -9
46 -35 67 -182 145 -71 37 -244 129 -384 203 -237 126 -721 383 -2165 1148
-1551 822 -1937 1027 -2140 1135 -44 23 -305 162 -580 307 -868 460 -1529 810
-2155 1143 -179 95 -406 215 -505 267 -99 53 -364 193 -590 313 -225 120 -592
314 -815 432 -223 118 -445 237 -495 263 -49 26 -351 186 -670 355 -928 492
-1878 996 -2465 1307 -321 171 -559 291 -580 294 -25 3 -50 -4 -85 -22z"/>
<path d="M48402 46803 c-8 -3 -33 -35 -57 -72 -38 -61 -48 -69 -89 -81 -61
-17 -96 -45 -96 -76 0 -29 29 -89 94 -194 66 -106 90 -190 84 -296 -2 -46 -10
-90 -16 -96 -20 -20 -150 53 -243 138 -167 152 -208 176 -239 139 -14 -17 6
-191 25 -215 16 -20 156 -271 216 -388 97 -189 190 -459 238 -688 29 -143 37
-207 66 -516 25 -278 43 -401 70 -495 17 -58 30 -72 50 -52 36 36 51 159 75
624 32 601 104 824 450 1389 95 157 134 239 126 271 -9 36 -36 32 -108 -20
-224 -158 -282 -188 -370 -189 -42 -1 -53 3 -73 26 -53 61 -39 166 51 390 31
79 59 164 62 190 4 44 3 48 -22 58 -15 5 -45 10 -66 10 -62 0 -85 14 -104 62
-30 75 -72 102 -124 81z"/>
<path d="M49289 45621 c-27 -28 -29 -34 -29 -109 0 -126 -37 -203 -184 -385
-203 -250 -284 -375 -305 -468 -5 -24 -24 -138 -41 -254 -71 -480 -150 -636
-299 -595 -61 16 -76 45 -73 143 2 97 -25 237 -74 378 -20 57 -110 259 -201
449 -170 356 -183 391 -253 679 -30 121 -61 161 -126 161 -70 0 -103 -38 -194
-220 -60 -122 -81 -155 -96 -154 -10 1 -64 14 -119 30 -82 23 -119 28 -205 28
-178 0 -299 -52 -389 -167 -25 -31 -59 -64 -76 -73 -58 -31 -83 -15 -217 135
-21 22 -42 41 -47 41 -6 0 -23 -11 -38 -24 -27 -24 -28 -27 -28 -123 0 -91 2
-103 33 -164 61 -125 218 -248 363 -285 81 -21 131 -14 244 32 61 25 112 38
158 42 37 2 67 2 67 -1 0 -3 -21 -50 -46 -104 -65 -141 -86 -207 -78 -251 10
-60 29 -82 71 -82 39 0 58 16 176 153 68 78 114 105 195 113 314 33 649 -343
686 -771 11 -121 -21 -204 -118 -312 -47 -52 -47 -52 -31 -82 22 -44 78 -59
153 -42 109 25 119 25 136 -1 21 -32 8 -149 -44 -403 -71 -343 -67 -415 34
-517 51 -53 52 -53 39 -88 -14 -40 -8 -94 17 -160 9 -25 20 -61 23 -81 l5 -37
-70 2 c-57 1 -73 -2 -81 -16 -10 -15 -5 -25 29 -60 62 -65 74 -88 74 -139 0
-131 -100 -307 -205 -361 -62 -33 -127 -27 -233 20 -95 42 -122 42 -122 -1 1
-30 23 -55 100 -112 36 -27 67 -50 69 -52 2 -2 2 -6 -2 -9 -3 -4 -49 8 -101
25 -53 17 -109 31 -124 31 -36 0 -128 -27 -161 -48 -136 -84 -182 -180 -121
-254 l19 -23 47 48 c25 26 50 47 54 47 4 0 27 -15 51 -33 57 -44 102 -67 130
-67 13 0 59 10 102 22 l80 21 17 -21 c10 -12 23 -57 30 -104 14 -99 30 -128
68 -128 39 0 52 17 52 70 0 62 32 123 129 245 117 145 126 166 155 346 38 235
74 319 137 319 44 0 56 -21 61 -107 8 -103 31 -169 144 -409 68 -145 102 -230
122 -309 22 -87 32 -112 53 -127 43 -32 71 -10 125 96 26 50 47 92 48 92 1 1
33 -6 71 -16 140 -37 222 -20 308 65 30 30 63 55 73 55 9 0 38 -22 63 -50 25
-27 52 -50 58 -50 35 0 43 91 14 155 -36 80 -155 165 -229 165 -19 0 -66 -11
-104 -25 -72 -26 -108 -31 -108 -16 0 5 13 38 30 73 29 60 37 109 24 142 -12
32 -47 16 -108 -50 -47 -50 -70 -67 -101 -74 -154 -35 -339 145 -376 365 -14
88 -3 135 46 192 19 23 35 44 35 46 0 17 -36 37 -66 37 -30 0 -34 3 -34 25 0
14 11 52 25 85 30 71 31 130 5 187 l-19 42 30 32 c51 55 81 115 86 177 6 70
-20 154 -132 420 -76 184 -86 223 -61 258 12 16 24 18 73 15 109 -8 168 -5
221 13 51 17 122 72 122 95 0 6 -33 47 -72 91 -124 137 -132 151 -136 231 -8
139 55 333 161 491 109 164 230 247 373 256 94 6 134 -5 294 -78 167 -76 175
-78 206 -49 30 28 31 70 3 116 -12 20 -85 82 -166 143 -80 60 -139 111 -133
115 18 11 85 -5 223 -53 116 -40 141 -45 212 -44 154 2 337 85 463 212 126
126 146 254 57 358 l-32 37 -84 -88 c-51 -52 -92 -87 -104 -87 -11 0 -65 34
-120 75 -158 119 -211 127 -418 69 -77 -21 -138 -33 -153 -30 -40 10 -55 48
-79 207 -13 83 -29 166 -35 185 -25 76 -116 100 -171 45z"/>
<path d="M45525 44384 c-16 -2 -66 -9 -110 -15 -313 -41 -620 -185 -820 -383
-172 -171 -281 -374 -315 -589 -16 -98 -8 -322 14 -402 87 -312 322 -593 669
-800 469 -279 1003 -311 1381 -82 196 119 282 239 293 412 15 222 -144 487
-396 663 -140 98 -325 148 -458 123 -285 -52 -306 -300 -40 -472 94 -61 202
-92 322 -93 146 -1 236 35 285 117 l18 29 17 -26 c23 -35 44 -95 45 -128 1
-84 -76 -196 -199 -290 -83 -63 -279 -159 -396 -194 -82 -25 -105 -28 -255
-28 -178 -1 -263 14 -415 71 -279 104 -530 310 -633 518 -126 254 -58 540 192
803 211 222 533 399 871 478 112 27 134 29 335 29 187 0 230 -3 330 -24 366
-75 726 -256 968 -486 242 -230 344 -456 345 -760 0 -160 -20 -277 -76 -445
-213 -646 -785 -1140 -1632 -1413 -645 -207 -1344 -233 -1965 -72 -669 173
-1114 459 -1196 769 -61 229 77 497 316 614 118 58 227 82 370 82 140 0 205
-15 325 -75 120 -60 213 -144 256 -230 28 -56 31 -72 27 -127 -7 -101 -60
-185 -161 -253 l-50 -34 -54 49 c-133 121 -371 143 -500 44 -70 -53 -86 -147
-39 -228 70 -119 286 -209 506 -209 164 -1 305 53 413 157 200 192 219 412 57
654 -159 238 -398 420 -635 484 -119 31 -336 31 -460 0 -257 -66 -480 -234
-581 -437 -98 -198 -78 -399 62 -626 89 -144 249 -315 390 -415 35 -25 64 -49
64 -54 0 -12 -173 -122 -291 -184 -221 -117 -581 -251 -753 -281 -227 -39
-452 0 -564 99 -79 69 -107 208 -60 305 67 140 269 259 424 249 l48 -3 -41
-27 c-110 -72 -88 -210 44 -275 80 -39 187 -40 251 -3 61 34 86 78 80 140 -7
65 -39 107 -135 170 -230 151 -471 167 -706 48 -240 -121 -273 -387 -74 -605
84 -92 254 -182 412 -218 411 -96 971 50 1461 380 l121 82 79 -40 c324 -164
764 -291 1259 -364 188 -28 640 -25 835 5 408 64 758 178 1119 365 361 187
716 455 913 690 521 623 451 1560 -164 2179 -290 292 -662 480 -1103 559 -97
18 -167 22 -365 24 -135 2 -258 1 -275 -1z"/>
<path d="M50970 44383 c-719 -77 -1303 -464 -1596 -1058 -118 -240 -163 -419
-171 -685 -6 -206 14 -353 71 -525 103 -306 286 -551 601 -802 491 -392 1078
-649 1700 -743 180 -28 521 -38 701 -21 478 45 1039 196 1398 378 l80 40 90
-62 c498 -343 1073 -497 1492 -400 220 51 417 182 490 327 104 205 45 397
-153 496 -235 119 -477 102 -706 -49 -98 -64 -137 -115 -137 -177 0 -98 78
-157 210 -157 64 0 83 4 129 30 127 70 145 203 38 273 l-41 27 48 3 c115 8
243 -46 343 -143 36 -36 73 -84 85 -111 45 -100 17 -229 -66 -302 -47 -41 -74
-55 -166 -83 -64 -21 -95 -24 -220 -24 -169 0 -233 13 -448 87 -176 61 -345
132 -481 204 -113 60 -291 172 -291 183 0 4 30 29 67 56 100 74 246 218 319
314 84 112 160 265 180 361 60 285 -115 574 -441 731 -150 72 -248 93 -425 93
-169 -1 -252 -19 -389 -84 -116 -56 -199 -117 -311 -229 -319 -320 -354 -600
-105 -844 107 -106 249 -161 415 -160 211 0 432 88 500 198 52 84 44 165 -20
226 -52 50 -125 73 -225 73 -121 0 -218 -37 -300 -115 l-41 -39 -50 34 c-101
68 -155 153 -162 253 -3 50 0 71 21 116 59 129 231 255 412 302 92 24 264 21
372 -5 229 -56 382 -178 465 -370 31 -70 33 -82 33 -191 l0 -116 -44 -89
c-117 -236 -446 -454 -917 -607 -280 -92 -545 -146 -819 -168 -162 -13 -497
-7 -650 11 -952 112 -1760 535 -2156 1129 -332 499 -386 1050 -137 1425 216
325 664 603 1138 703 113 24 146 27 340 28 170 0 232 -4 297 -18 341 -73 642
-226 870 -441 311 -293 385 -625 206 -914 -92 -149 -296 -318 -494 -411 -194
-91 -361 -126 -559 -118 -150 7 -255 34 -406 106 -130 62 -196 105 -275 179
-130 121 -159 236 -88 351 l20 34 18 -29 c50 -83 139 -119 286 -118 79 1 117
7 181 27 190 62 325 199 326 331 2 240 -391 288 -683 84 -136 -95 -264 -239
-331 -373 -50 -99 -63 -154 -63 -265 0 -98 2 -110 32 -174 47 -98 101 -157
213 -232 111 -73 223 -123 355 -156 129 -32 404 -32 548 0 441 98 850 374
1066 717 60 96 113 227 136 337 20 93 21 282 2 378 -67 337 -297 625 -635 795
-174 87 -365 142 -574 164 -90 10 -438 13 -518 4z"/>
<path d="M48471 41738 c-6 -18 -16 -113 -21 -213 -23 -402 -58 -523 -244 -829
-63 -103 -81 -156 -54 -156 7 0 49 25 94 56 93 64 158 81 184 49 23 -28 15
-93 -24 -194 -20 -51 -36 -103 -36 -116 0 -23 22 -35 68 -35 17 0 27 -9 37
-34 23 -55 57 -55 92 -2 12 19 39 42 60 52 48 24 47 38 -9 134 -33 58 -43 86
-45 129 -2 31 0 62 6 70 15 22 61 -2 152 -80 94 -82 115 -83 105 -7 -5 34 -30
91 -81 186 -123 224 -175 396 -200 651 -27 274 -44 371 -65 371 -4 0 -13 -14
-19 -32z"/>
<path d="M31074 39066 c-35 -15 -44 -32 -44 -81 0 -24 7 -39 26 -54 l27 -21
17557 0 c17496 0 17557 0 17583 20 51 41 38 117 -24 139 -23 8 -4757 11
-17563 11 -14693 -1 -17536 -3 -17562 -14z"/>
<path d="M61420 38114 c-370 -43 -608 -136 -821 -318 -174 -147 -285 -340
-341 -586 -20 -89 -21 -130 -25 -639 -5 -589 0 -703 42 -868 133 -524 632
-842 1326 -843 442 0 801 121 1048 355 164 156 257 323 307 555 17 78 19 138
19 715 0 681 -1 695 -57 860 -133 388 -487 662 -964 746 -114 20 -441 34 -534
23z m333 -499 c174 -31 314 -132 382 -277 47 -100 65 -172 75 -313 12 -156 12
-914 0 -1075 -23 -321 -156 -507 -412 -577 -99 -28 -311 -25 -408 6 -149 46
-254 134 -315 264 -72 151 -70 129 -70 847 0 599 1 650 19 714 50 186 137 299
284 368 113 54 289 71 445 43z"/>
<path d="M64500 38110 c-529 -61 -919 -321 -1014 -676 -25 -89 -30 -244 -13
-339 72 -389 339 -582 1177 -850 253 -80 410 -161 487 -248 72 -82 104 -207
84 -328 -37 -226 -215 -331 -531 -316 -324 17 -493 135 -545 384 -8 37 -15 89
-15 116 l0 47 -374 0 -374 0 -6 -25 c-8 -31 10 -191 30 -270 24 -93 86 -213
151 -290 174 -206 477 -360 843 -427 141 -26 508 -31 655 -10 504 73 832 311
921 667 37 150 19 376 -43 527 -113 280 -424 491 -962 653 -186 56 -413 146
-517 206 -101 58 -159 110 -192 173 -23 44 -27 63 -27 141 0 78 4 97 28 147
74 150 241 238 452 238 291 0 484 -159 513 -422 l7 -63 375 0 375 0 -3 85
c-18 427 -380 765 -929 865 -103 19 -441 28 -553 15z"/>
<path d="M31300 36983 c0 -604 5 -1130 10 -1183 31 -310 169 -538 427 -707
220 -144 486 -218 823 -230 713 -25 1234 255 1374 740 44 151 46 217 46 1372
l0 1095 -385 0 -384 0 -4 -1162 c-2 -1025 -5 -1169 -18 -1213 -57 -179 -155
-272 -341 -322 -89 -24 -318 -24 -408 1 -139 38 -253 124 -304 228 -64 132
-60 59 -64 1321 l-3 1147 -384 0 -385 0 0 -1087z"/>
<path d="M34520 36490 l0 -1580 1105 0 1105 0 0 245 0 245 -720 0 -720 0 0
1335 0 1335 -385 0 -385 0 0 -1580z"/>
<path d="M36150 37825 l0 -245 440 0 440 0 0 -1335 0 -1335 385 0 385 0 0
1335 0 1335 445 0 445 0 0 245 0 245 -1270 0 -1270 0 0 -245z"/>
<path d="M39060 36491 l0 -1581 385 0 385 0 0 630 0 630 308 0 c333 0 399 -8
488 -53 49 -25 126 -98 157 -148 9 -15 26 -55 38 -90 20 -58 23 -93 30 -354
10 -391 32 -506 114 -588 l28 -27 398 0 c399 0 399 0 399 21 0 12 -20 43 -44
71 -90 99 -115 211 -126 563 -9 303 -20 369 -87 505 -27 56 -56 95 -117 155
-86 86 -153 127 -284 175 l-77 28 57 25 c150 67 319 209 388 329 16 29 42 89
57 133 24 73 27 94 26 230 0 122 -4 165 -22 230 -96 354 -380 579 -842 667
-109 20 -146 21 -886 25 l-773 4 0 -1580z m1461 1067 c153 -53 242 -151 284
-313 30 -116 14 -279 -36 -378 -28 -54 -98 -121 -159 -152 -93 -47 -158 -55
-482 -55 l-298 0 0 461 0 460 323 -4 c259 -3 331 -7 368 -19z"/>
<path d="M43032 38013 c-11 -32 -124 -353 -250 -713 -202 -575 -545 -1553
-766 -2182 l-73 -208 388 0 388 0 42 133 c22 72 63 204 91 292 27 88 56 181
64 208 l16 47 518 0 519 0 20 -62 c71 -229 193 -613 195 -615 2 -2 176 -2 388
-1 l386 3 -552 1577 -551 1578 -401 0 -401 0 -21 -57z m483 -1000 c31 -98 74
-232 95 -298 21 -66 53 -165 70 -220 18 -55 54 -169 81 -254 27 -85 49 -156
49 -157 0 -2 -162 -4 -361 -4 l-360 0 7 23 c15 51 297 938 320 1010 14 42 30
77 34 77 5 0 34 -80 65 -177z"/>
<path d="M45250 36490 l0 -1580 386 0 386 0 -5 553 c-4 508 -27 1073 -62 1505
-3 40 -2 72 3 72 9 0 42 -91 422 -1180 122 -349 246 -706 277 -792 l55 -158
257 0 256 0 137 393 c386 1109 610 1743 619 1752 12 12 13 37 -21 -595 -25
-470 -30 -631 -30 -1052 l0 -498 380 0 380 0 0 1580 0 1580 -502 -2 -501 -3
-352 -1140 c-193 -627 -354 -1149 -358 -1159 -4 -11 -11 -15 -16 -10 -4 5 -74
227 -155 494 -81 267 -238 784 -349 1150 l-203 665 -502 3 -502 2 0 -1580z"/>
<path d="M50170 38067 c0 -2 -81 -235 -181 -518 -99 -283 -302 -860 -450
-1284 -149 -423 -316 -900 -373 -1060 l-102 -290 385 -3 c211 -1 386 0 389 3
3 2 38 111 79 242 40 131 87 282 104 336 l30 97 519 0 519 0 20 -62 c71 -229
193 -613 195 -615 2 -2 176 -2 388 -1 l386 3 -551 1577 -552 1578 -402 0
c-222 0 -403 -1 -403 -3z m429 -939 c18 -57 309 -971 325 -1025 l7 -23 -361 0
-361 0 7 23 c8 28 218 687 290 915 30 94 59 172 64 172 4 0 18 -28 29 -62z"/>
<path d="M52390 36491 l0 -1581 385 0 385 0 0 630 0 630 309 0 c169 0 332 -5
361 -10 160 -30 280 -142 330 -305 7 -24 15 -155 20 -330 11 -392 33 -503 112
-584 l30 -31 399 0 399 0 0 21 c0 12 -20 43 -44 68 -46 50 -77 121 -103 231
-10 43 -17 158 -23 335 -6 225 -11 283 -29 350 -64 244 -205 392 -459 485
l-77 28 57 25 c150 67 319 209 388 329 16 29 42 89 57 133 24 73 27 94 26 230
0 123 -4 165 -22 230 -96 355 -380 579 -842 666 -109 21 -147 22 -886 26
l-773 4 0 -1580z m1421 1075 c89 -19 156 -54 213 -113 83 -83 126 -204 126
-350 0 -181 -73 -319 -203 -383 -107 -52 -169 -60 -494 -60 l-293 0 0 460 0
460 293 0 c212 0 310 -4 358 -14z"/>
<path d="M55570 36490 l0 -1580 380 0 380 0 0 1580 0 1580 -380 0 -380 0 0
-1580z"/>
<path d="M56970 36490 l0 -1580 385 0 385 0 0 1010 c0 556 3 1010 8 1010 6 -1
465 -767 1028 -1717 l179 -302 383 -1 382 0 0 1580 0 1580 -380 0 -380 0 0
-1004 c0 -553 -4 -1007 -8 -1010 -4 -2 -73 104 -152 237 -80 133 -258 431
-396 662 -138 231 -344 576 -458 768 l-207 347 -384 0 -385 0 0 -1580z"/>
<path d="M31056 33919 c-19 -15 -26 -30 -26 -55 0 -48 14 -70 51 -83 23 -8
4790 -11 17566 -11 15313 0 17538 2 17562 15 57 29 61 103 9 139 -21 15 -1497
16 -17579 16 l-17556 0 -27 -21z"/>
<path d="M41120 32393 c-539 -36 -883 -98 -1300 -235 -794 -260 -1481 -743
-2026 -1424 -616 -769 -934 -1753 -934 -2882 0 -779 154 -1471 465 -2092 208
-416 443 -743 785 -1094 703 -720 1554 -1154 2560 -1305 288 -43 469 -55 830
-55 370 0 506 10 797 59 982 167 1869 703 2466 1492 231 305 422 661 564 1048
45 124 123 378 123 401 0 12 -130 14 -775 14 -426 0 -775 -4 -775 -8 0 -16
-178 -319 -248 -424 -38 -56 -102 -146 -142 -198 -96 -125 -351 -379 -465
-463 -439 -324 -975 -473 -1635 -454 -533 16 -956 117 -1365 326 -140 71 -336
197 -449 289 -121 97 -324 301 -425 427 -362 450 -557 953 -633 1625 -19 174
-16 678 6 865 74 636 273 1141 624 1585 100 125 312 338 438 437 430 340 896
522 1519 595 167 19 620 16 770 -6 287 -41 512 -108 740 -220 365 -180 650
-432 873 -774 78 -119 197 -355 252 -499 l43 -113 669 0 668 0 0 1460 0 1460
-670 0 -671 0 6 -97 c7 -124 25 -543 25 -589 l0 -35 -102 101 c-453 451 -1136
719 -1993 780 -126 9 -502 11 -615 3z"/>
<path d="M73760 32394 c-25 -2 -108 -8 -185 -14 -1017 -78 -1938 -459 -2675
-1107 -148 -130 -403 -390 -514 -523 -507 -607 -818 -1286 -951 -2073 -48
-289 -60 -446 -59 -832 0 -374 8 -495 55 -785 124 -781 430 -1457 941 -2080
133 -163 467 -496 636 -635 614 -506 1305 -824 2097 -965 620 -110 1373 -104
1975 16 688 138 1310 412 1834 807 253 190 589 509 778 737 506 613 833 1307
973 2065 85 462 98 1008 34 1489 -112 846 -447 1605 -1007 2279 -106 128 -363
389 -512 520 -706 621 -1560 979 -2581 1082 -144 15 -733 28 -839 19z m705
-1509 c569 -74 1024 -264 1455 -606 128 -101 358 -330 462 -459 173 -215 344
-509 442 -761 267 -683 285 -1578 47 -2289 -140 -417 -358 -772 -676 -1099
-476 -490 -1032 -765 -1730 -858 -184 -24 -650 -24 -825 0 -674 94 -1193 341
-1656 789 -314 305 -543 646 -697 1038 -198 508 -262 1136 -176 1735 110 766
470 1402 1074 1897 389 318 873 530 1380 603 61 9 155 20 210 25 143 13 548 4
690 -15z"/>
<path d="M19000 31620 l0 -610 480 0 480 0 0 -3160 0 -3160 -480 0 -480 0 0
-610 0 -610 3400 0 3400 0 0 1295 0 1295 -720 0 -720 0 0 -685 0 -685 -1400 0
-1400 0 0 1400 0 1400 1195 0 1195 0 0 655 0 655 -1195 0 -1195 0 0 1100 0
1100 1425 0 1425 0 0 -580 0 -580 695 0 695 0 0 1195 0 1195 -3400 0 -3400 0
0 -610z"/>
<path d="M26720 31620 l0 -610 480 0 480 0 0 -3160 0 -3160 -480 0 -480 0 0
-610 0 -610 3120 0 3120 0 0 1295 0 1295 -725 0 -725 0 0 -685 0 -685 -1115 0
-1115 0 0 3155 0 3155 545 0 545 0 0 615 0 615 -1825 0 -1825 0 0 -610z"/>
<path d="M47610 31620 l0 -610 481 0 c454 0 481 -1 477 -17 -3 -10 -102 -290
-221 -623 -118 -333 -353 -990 -520 -1460 -168 -470 -558 -1564 -867 -2430
-309 -866 -578 -1622 -599 -1680 l-37 -105 -357 -3 -357 -2 0 -610 0 -610
1600 0 1600 0 0 610 0 610 -474 0 -475 0 41 118 c36 105 147 430 319 932 33
96 87 254 120 350 32 96 63 178 67 182 4 4 637 7 1406 6 l1399 -3 169 -495
c93 -272 214 -625 269 -784 54 -159 99 -292 99 -297 0 -5 -212 -9 -475 -9
l-475 0 0 -610 0 -610 1695 0 1695 0 0 610 0 610 -412 2 -411 3 -263 750
c-144 413 -612 1749 -1039 2970 -427 1221 -805 2302 -841 2403 -35 101 -64
185 -64 188 0 2 232 4 515 4 l515 0 0 610 0 610 -2290 0 -2290 0 0 -610z
m2391 -1731 c174 -515 395 -1166 688 -2031 62 -181 114 -335 117 -343 5 -13
-110 -15 -1005 -15 -556 0 -1011 1 -1011 3 0 2 41 122 91 268 153 444 193 561
317 924 66 193 168 490 227 660 153 445 345 1002 363 1057 9 26 17 46 19 45 1
-2 88 -257 194 -568z"/>
<path d="M55080 31620 l0 -610 480 0 480 0 0 -3160 0 -3160 -480 0 -480 0 0
-610 0 -610 3120 0 3120 0 0 1295 0 1295 -725 0 -725 0 0 -685 0 -685 -1115 0
-1115 0 0 3155 0 3155 545 0 545 0 0 615 0 615 -1825 0 -1825 0 0 -610z"/>
<path d="M61160 31620 l0 -610 314 0 c290 0 314 -1 321 -17 3 -10 58 -160 120
-333 62 -173 220 -610 350 -970 130 -360 288 -799 352 -975 153 -427 270 -749
353 -980 38 -104 186 -514 328 -910 246 -681 358 -992 597 -1655 56 -157 187
-519 290 -805 104 -286 232 -641 285 -790 l97 -270 541 -3 540 -2 15 42 c8 24
128 365 267 758 228 648 602 1708 750 2130 84 240 607 1725 753 2140 288 815
622 1764 717 2035 132 377 167 478 192 548 l21 57 303 0 304 0 0 610 0 610
-1515 0 -1515 0 0 -610 0 -610 420 0 c251 0 420 -4 420 -9 0 -5 -54 -168 -121
-363 -66 -194 -151 -443 -189 -553 -37 -110 -95 -279 -128 -375 -107 -313
-562 -1640 -630 -1841 -422 -1235 -568 -1659 -572 -1659 -3 0 -90 246 -194
548 -104 301 -224 648 -266 772 -43 124 -151 437 -240 695 -89 259 -181 526
-205 595 -55 160 -342 992 -405 1175 -160 465 -339 983 -345 998 -7 16 16 17
399 17 l406 0 0 610 0 610 -1565 0 -1565 0 0 -610z"/>
<path d="M15699 28990 c-389 -47 -706 -324 -811 -707 -31 -114 -31 -333 0
-457 44 -174 131 -324 264 -452 119 -114 236 -183 395 -230 108 -32 293 -43
409 -25 368 60 674 342 766 708 31 122 31 341 0 456 -93 340 -352 598 -687
682 -104 26 -242 36 -336 25z"/>
<path d="M81965 28990 c-384 -35 -722 -324 -821 -703 -39 -151 -34 -362 12
-509 99 -315 338 -547 660 -640 68 -20 102 -23 244 -23 144 0 175 3 245 24
354 104 609 377 680 730 24 114 16 324 -15 430 -130 451 -539 732 -1005 691z"/>
<path d="M43260 21939 c-82 -14 -191 -71 -239 -125 -141 -160 -128 -501 24
-648 83 -81 225 -110 321 -67 52 23 69 45 24 29 -96 -33 -239 45 -275 150 -38
114 6 322 80 381 56 43 181 37 293 -14 168 -77 284 -232 326 -438 78 -378
-138 -994 -512 -1457 -100 -123 -302 -325 -420 -419 -51 -41 -91 -76 -88 -78
6 -6 173 61 251 100 535 268 954 799 1091 1382 25 109 28 137 28 300 0 162 -3
190 -26 276 -97 361 -397 617 -742 634 -44 2 -106 0 -136 -6z"/>
<path d="M53368 21940 c-147 -23 -295 -99 -415 -214 -243 -230 -330 -559 -252
-951 107 -536 479 -1056 964 -1347 115 -69 353 -178 388 -178 5 0 -29 30 -75
67 -187 150 -404 381 -548 583 -279 391 -450 906 -411 1237 21 177 79 301 191
406 75 71 142 110 225 132 123 32 217 9 253 -62 58 -113 73 -274 33 -356 -51
-106 -177 -159 -286 -122 l-20 7 20 -17 c37 -31 84 -45 152 -45 159 0 286 118
324 300 14 68 6 237 -15 304 -34 110 -127 200 -243 236 -77 24 -205 33 -285
20z"/>
<path d="M22565 21841 c-40 -17 -60 -51 -60 -101 0 -76 -35 -52 535 -365 168
-92 418 -229 555 -305 552 -304 872 -480 1110 -610 138 -76 360 -198 495 -272
135 -75 315 -174 400 -220 85 -47 265 -146 400 -220 135 -75 317 -175 405
-223 88 -48 268 -147 400 -220 132 -72 312 -171 400 -220 301 -165 850 -467
900 -495 104 -57 914 -502 1370 -753 110 -61 283 -156 385 -212 102 -56 282
-155 400 -220 118 -65 323 -178 455 -250 132 -73 672 -370 1200 -660 528 -290
1048 -576 1155 -635 107 -60 1187 -654 2400 -1320 1213 -667 2293 -1261 2400
-1320 192 -106 6158 -3386 8115 -4462 550 -303 1083 -596 1185 -652 1100 -608
1357 -746 1392 -746 29 0 209 94 900 471 475 259 1898 1036 3163 1727 4110
2242 8761 4780 10440 5697 1900 1037 5303 2894 7490 4087 1078 589 2472 1350
3098 1691 903 493 1142 627 1153 649 8 15 14 43 14 64 0 50 -53 104 -102 104
-25 0 -176 -78 -608 -313 -316 -173 -1536 -838 -2710 -1479 -1174 -641 -2925
-1596 -3890 -2123 -965 -527 -2320 -1266 -3010 -1643 -690 -377 -1302 -711
-1360 -742 -58 -31 -944 -515 -1970 -1075 -1026 -560 -2479 -1353 -3230 -1763
-751 -409 -2276 -1242 -3390 -1850 -1114 -607 -2538 -1385 -3165 -1727 -627
-342 -1513 -826 -1970 -1075 -456 -249 -836 -455 -845 -457 -9 -2 -596 315
-1305 705 -710 390 -3477 1912 -6150 3382 -2673 1470 -6370 3503 -8215 4518
-1845 1015 -3398 1868 -3450 1897 -52 29 -500 275 -995 547 -969 533 -4200
2310 -4455 2450 -85 47 -423 233 -750 413 -383 211 -607 329 -630 331 -19 2
-44 0 -55 -5z"/>
<path d="M45119 21131 c-38 -38 -38 -74 0 -112 l29 -29 3357 0 3356 0 24 25
c31 30 33 83 6 116 l-19 24 -3362 3 -3361 2 -30 -29z"/>
<path d="M42270 21014 c-182 -48 -310 -167 -362 -337 -81 -266 142 -518 418
-471 l49 8 -67 7 c-174 19 -299 137 -301 282 -2 97 25 161 97 233 78 78 146
106 261 106 181 2 326 -87 414 -251 46 -86 64 -170 64 -286 -1 -185 -70 -334
-227 -490 -147 -146 -355 -269 -585 -345 -292 -97 -559 -113 -811 -49 -239 61
-603 241 -1062 526 -542 336 -945 520 -1296 590 -126 25 -454 25 -572 0 -118
-26 -227 -70 -312 -127 -69 -46 -128 -94 -128 -103 0 -3 34 13 75 35 231 121
496 140 820 58 276 -69 535 -200 950 -479 110 -74 295 -199 412 -277 619 -416
973 -565 1388 -581 286 -11 598 63 900 215 325 162 549 383 666 657 49 112 63
189 63 330 -1 157 -21 244 -91 385 -38 79 -61 109 -132 180 -99 98 -186 149
-307 180 -92 24 -242 26 -324 4z"/>
<path d="M54256 21014 c-233 -56 -422 -247 -506 -509 -31 -96 -39 -319 -16
-417 46 -195 141 -357 310 -523 127 -127 245 -209 421 -296 302 -148 599 -217
885 -206 275 11 490 72 800 227 221 110 356 196 975 616 443 301 786 466 1085
521 134 24 377 24 484 -1 95 -22 195 -61 267 -106 53 -32 54 -32 29 -5 -40 43
-140 111 -221 150 -129 61 -250 87 -439 92 -195 6 -321 -9 -514 -62 -313 -86
-574 -212 -1133 -551 -568 -344 -863 -485 -1127 -539 -293 -59 -657 1 -973
160 -381 194 -583 453 -583 749 0 157 46 278 142 382 139 148 354 191 521 102
66 -36 105 -77 144 -151 23 -44 28 -64 28 -132 0 -96 -19 -139 -90 -204 -59
-54 -119 -81 -204 -90 -65 -7 -65 -8 -28 -16 66 -13 160 0 230 33 80 37 141
96 176 171 23 49 26 68 26 161 0 98 -2 109 -33 172 -66 136 -194 238 -343 273
-79 18 -235 18 -313 -1z"/>
<path d="M45858 20635 c-281 -53 -476 -247 -503 -499 l-7 -66 225 0 226 0 6
48 c12 85 36 142 79 187 100 104 283 79 347 -48 27 -52 36 -151 19 -214 -38
-143 -133 -256 -539 -643 l-330 -315 -1 -117 0 -118 695 0 695 0 0 140 0 140
-396 0 -396 0 103 112 c57 62 185 195 284 297 249 257 305 334 340 468 29 110
13 249 -41 356 -60 118 -214 223 -384 262 -103 24 -322 29 -422 10z"/>
<path d="M47540 20636 c-264 -57 -428 -213 -496 -471 -17 -62 -19 -111 -19
-430 0 -407 3 -433 75 -582 73 -151 215 -261 400 -310 92 -25 330 -24 420 1
227 62 383 217 447 446 16 58 18 108 18 440 0 423 -2 437 -75 587 -72 146
-217 262 -385 307 -84 23 -302 29 -385 12z m257 -286 c55 -24 96 -89 119 -184
22 -93 31 -566 15 -743 -22 -237 -82 -323 -227 -323 -71 0 -121 27 -158 83
-57 89 -60 108 -64 525 -3 360 -2 387 17 464 36 140 94 197 201 197 33 0 72
-7 97 -19z"/>
<path d="M49137 20635 c-280 -53 -475 -247 -502 -499 l-7 -66 225 0 225 0 12
68 c26 154 104 232 231 232 122 0 207 -86 217 -220 11 -165 -77 -302 -390
-600 -100 -96 -251 -240 -335 -320 l-152 -145 -1 -117 0 -118 695 0 695 0 0
140 0 140 -396 0 -396 0 93 102 c52 56 175 185 274 287 100 102 205 215 235
251 233 282 168 651 -142 799 -46 21 -117 47 -158 56 -103 24 -322 29 -423 10z"/>
<path d="M34292 20610 c-201 -53 -360 -186 -458 -385 -61 -124 -78 -197 -78
-330 0 -130 17 -203 75 -324 122 -257 377 -464 681 -555 321 -96 697 -77 1088
54 232 78 473 192 860 410 240 135 422 225 525 259 96 32 239 55 277 46 22 -6
18 -12 -59 -92 -272 -283 -330 -532 -167 -721 44 -52 157 -109 243 -123 201
-32 402 74 540 285 119 183 153 396 87 556 -15 36 -28 69 -29 74 -3 12 100 52
209 81 258 68 530 57 793 -32 214 -72 322 -127 861 -437 545 -314 963 -512
1340 -634 587 -190 1175 -228 1661 -106 314 78 645 245 888 448 158 132 344
345 432 496 l21 35 -22 -25 c-12 -14 -55 -65 -97 -113 -284 -331 -726 -591
-1173 -691 -523 -116 -1107 -46 -1744 210 -333 134 -664 311 -1226 656 -355
217 -436 263 -602 343 -333 158 -646 224 -942 197 -205 -19 -351 -56 -548
-139 l-106 -45 -79 30 c-113 43 -184 56 -313 56 -261 0 -436 -69 -975 -383
-510 -298 -769 -411 -1078 -470 -210 -40 -428 -37 -598 10 -292 80 -548 313
-604 551 -45 192 13 387 160 534 138 139 292 180 525 139 167 -29 274 -79 350
-162 60 -65 74 -106 68 -192 -8 -111 -63 -193 -163 -242 -60 -29 -70 -31 -142
-27 -96 7 -158 33 -226 97 -28 25 -45 37 -39 26 21 -40 98 -105 157 -132 52
-24 72 -28 155 -28 81 0 102 4 145 25 68 33 135 103 170 175 25 52 29 72 30
150 0 76 -4 98 -24 140 -56 114 -181 209 -346 264 -184 61 -367 76 -503 41z
m3309 -1057 c24 -101 -58 -277 -164 -354 -45 -32 -109 -39 -142 -15 -17 12
-17 17 -5 60 14 51 72 139 136 207 67 72 155 152 160 146 3 -3 10 -23 15 -44z"/>
<path d="M62222 20616 c-300 -57 -489 -188 -537 -371 -39 -149 40 -319 187
-400 49 -28 61 -30 153 -30 87 0 107 3 155 26 65 31 128 84 154 130 18 32 17
31 -25 -12 -92 -94 -234 -132 -349 -94 -106 35 -200 164 -200 274 0 187 217
329 530 348 120 7 195 -7 289 -53 237 -117 364 -425 278 -672 -37 -106 -81
-175 -172 -267 -300 -304 -767 -364 -1322 -171 -220 77 -365 150 -812 409
-442 255 -591 321 -806 353 -160 25 -331 3 -466 -58 l-54 -24 -80 37 c-428
197 -894 207 -1351 27 -206 -81 -347 -159 -929 -513 -599 -365 -1005 -559
-1435 -689 -591 -177 -1165 -177 -1646 -1 -226 83 -487 232 -662 379 -78 65
-245 233 -315 316 -45 52 -39 39 17 -45 270 -404 721 -724 1218 -864 431 -121
985 -111 1498 25 499 133 932 332 1735 797 413 239 635 339 869 389 80 17 135
22 266 22 182 1 275 -13 435 -64 106 -34 134 -51 119 -71 -47 -60 -70 -220
-50 -335 27 -156 91 -278 211 -400 62 -63 97 -89 155 -117 342 -163 693 78
605 416 -30 117 -119 252 -257 393 -68 69 -69 72 -45 78 41 10 175 -13 283
-49 123 -41 220 -89 554 -274 573 -319 861 -434 1215 -486 141 -21 378 -21
513 -1 435 66 797 348 912 711 34 108 39 267 11 375 -65 258 -239 455 -473
537 -90 32 -262 40 -376 19z m-2893 -1073 c115 -103 231 -266 231 -326 0 -34
-19 -47 -65 -47 -135 0 -290 253 -249 408 4 12 9 22 13 22 3 0 35 -26 70 -57z"/>
<path d="M50855 20328 c-110 -161 -289 -423 -399 -582 l-198 -290 6 -85 c4
-47 10 -98 13 -113 l6 -28 388 0 389 0 0 -190 0 -190 225 0 225 0 0 190 0 190
105 0 105 0 0 140 0 140 -105 0 -105 0 0 555 0 555 -227 0 -228 0 -200 -292z
m205 -513 l0 -305 -195 0 -194 0 77 128 c43 70 127 207 186 305 59 97 112 177
117 177 5 0 9 -125 9 -305z"/>
<path d="M39290 19024 c-383 -49 -647 -208 -773 -467 -61 -124 -80 -206 -81
-342 0 -192 54 -326 184 -455 128 -129 280 -190 469 -190 172 0 320 54 431
156 232 215 173 572 -102 624 -29 6 -56 16 -61 23 -5 8 -7 6 -5 -7 2 -12 17
-24 43 -33 91 -30 165 -131 165 -225 0 -113 -81 -232 -195 -289 -129 -63 -289
-59 -432 11 -246 121 -271 490 -48 698 128 121 295 175 535 175 166 1 254 -11
426 -58 203 -56 364 -120 730 -291 541 -251 828 -338 1154 -351 297 -11 569
62 760 204 27 20 48 38 46 40 -2 2 -28 -8 -59 -22 -177 -81 -462 -107 -712
-65 -259 44 -486 136 -930 377 -577 314 -825 415 -1145 469 -87 15 -337 26
-400 18z"/>
<path d="M57250 19020 c-201 -25 -424 -86 -639 -176 -114 -48 -352 -170 -606
-309 -571 -314 -851 -404 -1225 -392 -179 5 -268 23 -401 77 -38 16 -69 27
-69 25 0 -12 115 -88 186 -124 210 -105 506 -145 784 -106 286 41 533 127
1050 368 124 57 290 130 369 161 474 188 847 213 1126 77 99 -49 151 -93 204
-172 54 -81 81 -170 81 -268 0 -172 -73 -292 -220 -360 -221 -103 -479 -33
-571 155 -72 146 -21 291 124 353 28 12 47 27 47 36 0 15 -1 15 -16 1 -8 -9
-30 -16 -47 -16 -76 -1 -173 -74 -218 -166 -20 -41 -24 -64 -24 -144 0 -89 2
-100 37 -173 93 -194 308 -306 567 -295 243 11 445 135 548 335 58 113 77 208
70 342 -7 128 -25 200 -78 307 -114 232 -333 382 -656 449 -94 20 -319 27
-423 15z"/>
<path d="M43560 18703 c-98 -16 -298 -104 -416 -183 -98 -66 -228 -195 -277
-277 -251 -414 -71 -888 381 -1004 247 -63 507 22 647 213 154 208 87 513
-133 611 -111 49 -262 29 -347 -45 -53 -47 -59 -66 -12 -41 45 25 169 24 217
-1 107 -56 148 -149 116 -261 -52 -178 -312 -242 -499 -123 -163 104 -209 318
-116 535 83 194 378 482 563 549 42 15 54 23 41 27 -18 7 -123 7 -165 0z"/>
<path d="M53110 18701 c-12 -9 -11 -11 6 -11 37 0 157 -67 243 -137 223 -178
356 -357 397 -531 23 -96 14 -215 -20 -286 -33 -67 -109 -139 -184 -174 -49
-23 -70 -27 -152 -27 -84 0 -102 3 -152 28 -99 49 -148 122 -148 225 0 154
159 250 323 195 l57 -20 -24 31 c-13 17 -49 45 -81 61 -53 27 -68 30 -150 30
-82 0 -97 -3 -157 -33 -147 -72 -229 -244 -198 -414 27 -154 126 -277 284
-353 112 -54 186 -69 313 -63 236 12 451 145 555 344 112 216 85 496 -69 712
-120 169 -334 318 -568 398 -87 29 -247 44 -275 25z"/>
<path d="M45119 18471 c-38 -38 -38 -74 0 -112 l29 -29 3357 0 3356 0 24 25
c31 30 33 83 6 116 l-19 24 -3362 3 -3361 2 -30 -29z"/>
<path d="M48442 15253 c-7 -2 -19 -18 -28 -34 -8 -17 -33 -38 -59 -50 -25 -12
-45 -25 -45 -31 0 -5 23 -52 50 -104 40 -75 50 -105 50 -142 0 -26 -4 -53 -9
-61 -14 -22 -62 2 -136 70 -107 96 -132 100 -121 18 4 -32 29 -90 76 -176 136
-248 179 -392 210 -701 23 -224 37 -307 55 -322 23 -19 35 45 45 235 12 213
33 370 61 463 26 82 94 221 183 367 62 104 78 147 57 159 -5 3 -42 -19 -83
-49 -81 -59 -157 -87 -186 -69 -37 24 -36 65 3 175 59 166 58 179 -12 179 -26
0 -34 6 -50 38 -18 36 -35 46 -61 35z"/>
<path d="M41765 14999 c-277 -35 -516 -172 -609 -348 -51 -97 -65 -189 -42
-271 31 -113 96 -183 224 -241 100 -45 176 -62 287 -61 143 0 270 43 417 144
138 93 145 233 15 293 -125 59 -290 9 -339 -102 -28 -64 -18 -107 38 -160 24
-24 44 -45 44 -48 0 -11 -88 -4 -145 10 -131 35 -266 137 -314 240 -30 64 -30
160 -1 221 94 194 440 250 815 133 158 -49 367 -135 525 -215 147 -74 330
-186 330 -202 0 -4 -28 -27 -61 -51 -95 -67 -270 -242 -338 -338 -82 -115
-148 -250 -167 -343 -72 -345 209 -695 643 -802 121 -30 324 -30 435 0 223 60
402 180 569 381 161 193 220 373 174 529 -22 72 -107 194 -176 252 -170 142
-388 176 -629 98 -193 -62 -293 -154 -294 -270 0 -127 157 -212 344 -187 82
11 197 67 240 115 30 35 33 36 58 23 50 -27 141 -120 166 -171 74 -149 -10
-319 -219 -442 -116 -68 -187 -88 -333 -94 -102 -4 -138 -1 -218 18 -211 48
-379 170 -456 330 -47 97 -62 168 -56 269 4 70 10 93 48 168 168 342 796 647
1565 760 151 22 662 25 825 5 473 -58 875 -177 1253 -369 562 -287 948 -701
1116 -1198 89 -264 99 -537 29 -755 -99 -309 -368 -577 -772 -770 -491 -235
-967 -263 -1421 -83 -443 175 -776 491 -851 808 -32 138 -5 314 68 434 152
253 493 474 827 536 114 21 284 19 397 -4 251 -52 543 -234 625 -391 33 -63
32 -150 -1 -207 -22 -39 -40 -55 -40 -35 0 19 -69 77 -118 100 -189 87 -525
-16 -640 -194 -87 -136 -45 -268 102 -323 63 -23 204 -29 286 -11 273 61 563
349 636 630 21 82 14 203 -15 280 -62 162 -289 327 -546 397 -93 25 -114 27
-300 27 -171 0 -213 -3 -290 -21 -552 -133 -1035 -528 -1164 -953 -36 -120
-44 -184 -38 -332 4 -116 10 -160 31 -233 108 -364 408 -656 811 -791 397
-133 932 -126 1367 16 132 44 332 136 438 202 197 124 412 325 543 508 81 115
196 341 237 468 62 194 74 276 74 512 0 199 -2 223 -27 330 -103 436 -338 746
-827 1087 -492 344 -1084 566 -1659 623 -151 15 -486 12 -631 -5 -458 -54
-895 -172 -1266 -342 l-141 -64 -129 86 c-430 288 -949 442 -1329 394z"/>
<path d="M54906 14999 c-322 -34 -706 -183 -1030 -401 l-119 -79 -111 52
c-377 177 -888 314 -1335 359 -133 13 -459 13 -592 0 -583 -59 -1186 -287
-1674 -633 -418 -296 -641 -562 -763 -908 -63 -178 -77 -272 -77 -504 1 -177
4 -226 23 -311 34 -156 77 -277 152 -429 88 -177 175 -298 320 -448 256 -265
562 -441 934 -537 208 -53 315 -65 596 -64 222 0 271 3 380 23 326 60 587 190
786 390 348 349 416 844 174 1252 -202 340 -641 639 -1082 736 -65 14 -125 18
-278 17 -180 0 -203 -2 -295 -27 -190 -51 -390 -170 -480 -284 -149 -190 -119
-452 81 -702 226 -282 568 -409 794 -294 193 99 132 336 -119 461 -209 105
-436 94 -542 -26 -33 -38 -42 -43 -50 -32 -55 83 -60 166 -14 248 38 69 151
175 252 235 101 61 275 131 375 151 97 20 277 21 388 1 388 -68 777 -356 881
-651 29 -85 36 -221 15 -316 -61 -276 -321 -553 -691 -737 -163 -81 -265 -119
-431 -156 -225 -52 -511 -44 -757 20 -418 109 -802 344 -1008 618 -258 342
-271 782 -39 1262 103 214 228 384 406 554 470 449 1187 743 1984 812 193 17
575 6 755 -21 578 -87 1108 -301 1375 -556 130 -124 189 -234 197 -369 7 -100
-7 -169 -53 -262 -85 -172 -256 -293 -480 -339 -106 -22 -293 -15 -384 14
-152 50 -317 179 -366 287 -35 75 -31 170 9 238 28 47 115 132 159 156 25 13
28 12 58 -23 18 -20 66 -53 108 -73 75 -38 77 -38 196 -38 116 0 123 1 175 30
166 92 133 274 -67 374 -129 64 -280 97 -407 88 -214 -15 -402 -141 -497 -335
-95 -193 -12 -428 238 -678 215 -213 428 -307 699 -307 147 0 251 20 381 74
219 91 406 279 464 466 60 193 21 373 -130 600 -60 89 -276 308 -362 367 -32
22 -58 43 -58 48 0 16 182 127 330 202 154 79 363 164 522 215 372 118 724 61
818 -133 29 -62 29 -160 -1 -223 -49 -102 -184 -204 -314 -238 -67 -17 -141
-20 -150 -5 -3 6 0 10 8 10 23 0 76 60 88 101 10 32 9 46 -5 84 -44 115 -215
170 -343 110 -130 -60 -123 -196 14 -292 142 -99 273 -145 418 -146 166 0 332
59 427 154 195 195 82 515 -234 668 -196 95 -395 126 -642 100z"/>
<path d="M48912 14628 c-7 -7 -12 -32 -12 -57 -1 -64 -24 -110 -123 -235 -123
-156 -134 -180 -157 -337 -41 -274 -96 -377 -174 -326 -20 13 -24 26 -28 94
-8 104 -41 198 -148 423 -65 134 -96 214 -115 289 -31 125 -38 139 -70 147
-40 10 -67 -17 -114 -113 l-43 -90 -67 19 c-132 38 -264 8 -321 -72 -44 -62
-77 -60 -138 11 -19 22 -40 39 -47 39 -37 0 -46 -90 -16 -155 26 -58 112 -131
174 -150 67 -20 73 -19 151 10 62 23 116 32 116 19 0 -3 -13 -36 -30 -74 -66
-151 -10 -216 81 -94 41 56 68 73 121 80 142 19 312 -148 354 -348 21 -99 13
-145 -37 -209 -40 -49 -40 -51 -23 -71 13 -14 28 -19 51 -16 30 4 33 2 33 -24
0 -16 -11 -55 -25 -88 -30 -71 -32 -132 -6 -183 l19 -38 -48 -64 c-103 -136
-96 -190 66 -574 41 -95 74 -188 74 -206 0 -48 -30 -70 -88 -65 -125 11 -186
6 -244 -23 -52 -26 -98 -67 -98 -88 0 -5 36 -48 81 -96 44 -49 92 -107 106
-131 24 -41 25 -49 20 -135 -7 -115 -36 -216 -92 -330 -102 -204 -216 -318
-364 -361 -108 -32 -187 -19 -347 55 -49 23 -113 52 -141 65 l-53 23 -30 -25
c-71 -60 -29 -125 180 -279 166 -123 143 -132 -114 -45 -154 51 -194 56 -297
36 -106 -21 -213 -71 -307 -143 -121 -92 -182 -184 -182 -273 0 -67 52 -170
85 -170 7 0 48 36 91 80 50 52 85 80 100 80 12 0 57 -27 100 -61 124 -95 165
-114 254 -113 55 0 105 9 185 32 135 39 157 40 184 6 21 -26 29 -59 56 -239 9
-60 23 -124 30 -141 29 -69 114 -87 166 -35 28 28 29 34 29 115 0 74 4 96 29
149 30 66 113 186 190 276 85 100 190 245 225 312 42 78 46 96 86 364 58 394
122 567 220 596 31 9 49 10 80 0 58 -17 74 -47 72 -138 -2 -90 19 -212 54
-325 35 -112 97 -251 253 -575 132 -274 160 -352 216 -593 32 -134 67 -180
137 -180 62 0 99 42 183 212 40 81 75 153 77 160 3 8 41 2 129 -22 252 -68
451 -33 575 101 101 109 114 119 148 119 41 0 78 -28 147 -110 68 -80 98 -89
129 -38 18 28 21 45 18 123 -3 79 -8 97 -38 153 -83 155 -258 276 -420 289
-59 5 -75 1 -175 -37 -97 -37 -235 -65 -235 -47 0 3 22 54 49 114 70 154 82
195 75 247 -8 58 -37 90 -73 81 -43 -10 -65 -29 -143 -122 -88 -104 -120 -128
-196 -144 -216 -44 -486 143 -627 436 -52 106 -71 179 -84 306 -15 149 7 220
104 327 48 52 54 64 46 84 -21 56 -78 69 -193 43 l-81 -19 -18 22 c-24 30 -17
114 27 332 78 391 81 430 39 515 -14 30 -47 72 -72 95 -33 29 -43 43 -36 52
27 34 23 101 -10 193 -8 22 -17 55 -20 73 l-7 32 69 -6 c63 -6 70 -5 80 15 10
18 5 29 -44 86 -50 60 -55 69 -55 114 0 156 128 352 250 381 59 14 92 8 189
-36 81 -37 109 -42 117 -19 14 35 -8 66 -88 126 -45 35 -77 64 -70 67 6 2 55
-11 109 -28 77 -25 107 -30 143 -25 102 15 223 94 260 170 20 41 21 52 11 85
-20 66 -34 69 -91 16 l-51 -47 -27 21 c-112 87 -139 93 -262 59 -74 -20 -75
-20 -90 -1 -9 11 -22 57 -29 103 -7 46 -19 94 -27 107 -16 24 -62 30 -82 10z"/>
<path d="M48461 11553 c-28 -71 -39 -183 -61 -606 -29 -568 -109 -828 -400
-1307 -116 -190 -180 -312 -180 -341 0 -9 7 -22 16 -30 20 -16 49 -1 159 82
108 82 191 127 258 140 178 36 200 -91 71 -413 -31 -79 -59 -164 -62 -189 -4
-45 -3 -47 28 -58 18 -6 51 -11 72 -11 56 0 76 -14 103 -76 44 -99 102 -97
170 8 35 55 47 65 98 85 33 12 66 28 74 35 27 22 9 84 -60 197 -89 145 -110
211 -105 324 2 48 9 92 15 98 29 29 152 -46 292 -175 121 -113 163 -135 191
-101 9 11 9 34 -1 107 -11 77 -20 104 -52 157 -70 115 -206 374 -252 479 -87
198 -165 467 -199 687 -9 55 -27 224 -41 376 -35 383 -69 559 -108 559 -8 0
-20 -12 -26 -27z"/>
</g>
</svg>
